# 3ds Max Wavefront OBJ Exporter v0.97b - (c)2007 guruware
# File Created: 06.05.2016 15:20:47

mtllib Low Poly Wall.mtl

#
# object Low_Poly_Wand
#

v  -24.8581 -13.5148 1.1713
v  -12.4291 -13.5148 1.1713
v  -12.4291 -6.7574 1.1713
v  -24.8581 -6.7574 1.1713
v  0.0000 -13.5148 1.1713
v  0.0000 -6.7574 1.1713
v  12.4291 -13.5148 1.1713
v  12.4291 -6.7574 1.1713
v  24.8581 -13.5148 1.1713
v  24.8581 -6.7574 1.1713
v  -24.8581 -5.2787 -1.1713
v  -12.4291 -5.2787 -1.1713
v  -12.4291 -0.8026 -1.1713
v  -24.8581 -0.8026 -1.1713
v  0.0000 -5.2787 -1.1713
v  0.0000 -0.8026 -1.1713
v  12.4291 -5.2787 -1.1713
v  12.4291 -0.8026 -1.1713
v  24.8581 -5.2787 -1.1713
v  24.8581 -0.8026 -1.1713
v  -24.8581 4.0078 -1.1713
v  -12.4291 4.0078 -1.1713
v  -12.4291 6.7574 1.1713
v  -24.8581 6.7574 1.1713
v  0.0000 4.0078 -1.1713
v  0.0000 6.7574 1.1713
v  12.4291 4.0078 -1.1713
v  12.4291 6.7574 1.1713
v  24.8581 4.0078 -1.1713
v  24.8581 6.7574 1.1713
v  -12.4291 13.5148 1.1713
v  -24.8581 13.5148 1.1713
v  0.0000 13.5148 1.1713
v  12.4291 13.5148 1.1713
v  24.8581 13.5148 1.1713
# 35 vertices

vn 0.0000 -0.0000 1.0000
vn 0.0000 0.4828 0.8757
vn 0.0000 -0.3455 0.9384
# 3 vertex normals

vt 0.0000 0.0000 0.0000
vt 0.2500 0.0000 0.0000
vt 0.2500 0.2500 0.0000
vt 0.0000 0.2500 0.0000
vt 0.5000 0.0000 0.0000
vt 0.5000 0.2500 0.0000
vt 0.7500 0.0000 0.0000
vt 0.7500 0.2500 0.0000
vt 1.0000 0.0000 0.0000
vt 1.0000 0.2500 0.0000
vt 0.0000 0.3344 0.0000
vt 0.2500 0.3344 0.0000
vt 0.2500 0.5000 0.0000
vt 0.0000 0.5000 0.0000
vt 0.5000 0.3344 0.0000
vt 0.5000 0.5000 0.0000
vt 0.7500 0.3344 0.0000
vt 0.7500 0.5000 0.0000
vt 1.0000 0.3344 0.0000
vt 1.0000 0.5000 0.0000
vt 0.0000 0.6780 0.0000
vt 0.2500 0.6780 0.0000
vt 0.2500 0.7500 0.0000
vt 0.0000 0.7500 0.0000
vt 0.5000 0.6780 0.0000
vt 0.5000 0.7500 0.0000
vt 0.7500 0.6780 0.0000
vt 0.7500 0.7500 0.0000
vt 1.0000 0.6780 0.0000
vt 1.0000 0.7500 0.0000
vt 0.2500 1.0000 0.0000
vt 0.0000 1.0000 0.0000
vt 0.5000 1.0000 0.0000
vt 0.7500 1.0000 0.0000
vt 1.0000 1.0000 0.0000
# 35 texture coords

g Low_Poly_Wand
usemtl wire_214228153
s 1
f 1/1/1 2/2/1 3/3/2 4/4/2 
f 2/2/1 5/5/1 6/6/2 3/3/2 
f 5/5/1 7/7/1 8/8/2 6/6/2 
f 7/7/1 9/9/1 10/10/2 8/8/2 
f 11/11/2 12/12/2 13/13/1 14/14/1 
f 12/12/2 15/15/2 16/16/1 13/13/1 
f 15/15/2 17/17/2 18/18/1 16/16/1 
f 17/17/2 19/19/2 20/20/1 18/18/1 
f 21/21/3 22/22/3 23/23/3 24/24/3 
f 22/22/3 25/25/3 26/26/3 23/23/3 
f 25/25/3 27/27/3 28/28/3 26/26/3 
f 27/27/3 29/29/3 30/30/3 28/28/3 
f 24/24/3 23/23/3 31/31/1 32/32/1 
f 23/23/3 26/26/3 33/33/1 31/31/1 
f 26/26/3 28/28/3 34/34/1 33/33/1 
f 28/28/3 30/30/3 35/35/1 34/34/1 
f 14/14/1 13/13/1 22/22/3 21/21/3 
f 13/13/1 16/16/1 25/25/3 22/22/3 
f 16/16/1 18/18/1 27/27/3 25/25/3 
f 18/18/1 20/20/1 29/29/3 27/27/3 
f 4/4/2 3/3/2 12/12/2 11/11/2 
f 3/3/2 6/6/2 15/15/2 12/12/2 
f 6/6/2 8/8/2 17/17/2 15/15/2 
f 8/8/2 10/10/2 19/19/2 17/17/2 
# 24 polygons

